# xmcd
#
# Track frame offsets: 
#        150
#        13840
#        31855
#        50372
#        65883
#        81088
#        91563
#        104193
#        126333
#        153441
#        165737
#        181359
#        195264
#        218093
#        237921
#
# Disc length: 3365 seconds
#
# Revision: 0
# Processed by: cddbd v1.5.2PL0 Copyright (c) Steve Scherf et al.
# Submitted via: ExactAudioCopy v1.0b1
#
DISCID=c60d230f
DTITLE=Magda Umer, Bogdan Hołownia - Bezsenna noc
DYEAR=2016
DGENRE=Ballad
TTITLE0=Juz nie zapomnisz mnie
TTITLE1=Bezsenna noc
TTITLE2=Jak to dziewczyna
TTITLE3=jaki smieszny jestes pod oknem
TTITLE4=Szeptem
TTITLE5=La valse du mal
TTITLE6=Uciekaj, moje serce
TTITLE7=Nikt, tylko ty
TTITLE8=Pejzaz bez ciebie
TTITLE9=Co sie stalo
TTITLE10=pokoik na Hozej
TTITLE11=Martwe liscie
TTITLE12=Czlowiek, ktorego kocham
TTITLE13=Odmienia wszystko czas
TTITLE14=O, snie
EXTD=
EXTT0=
EXTT1=
EXTT2=
EXTT3=
EXTT4=
EXTT5=
EXTT6=
EXTT7=
EXTT8=
EXTT9=
EXTT10=
EXTT11=
EXTT12=
EXTT13=
EXTT14=
PLAYORDER=
